<svg width="30" height="30" viewBox="0 0 30 30" fill="none" xmlns="http://www.w3.org/2000/svg">
<rect width="30" height="30" rx="5" fill="#FE6C2E"/>
<path d="M15 23.624C14.3527 23.624 13.8281 23.0995 13.8281 22.4521V7.54773C13.8281 6.90039 14.3527 6.37585 15 6.37585C15.6473 6.37585 16.1719 6.90039 16.1719 7.54773V22.4521C16.1719 23.0995 15.6473 23.624 15 23.624Z" fill="white"/>
<path d="M22.4523 16.1719H7.54797C6.90063 16.1719 6.3761 15.6474 6.3761 15C6.3761 14.3527 6.90063 13.8282 7.54797 13.8282H22.4523C23.0997 13.8282 23.6242 14.3527 23.6242 15C23.6242 15.6474 23.0997 16.1719 22.4523 16.1719Z" fill="white"/>
</svg>
