<svg width="25" height="24" viewBox="0 0 25 24" fill="none" xmlns="http://www.w3.org/2000/svg">
<path d="M23.4648 7.68381C23.9567 8.31117 24.1926 8.98369 24.1624 9.67629C24.1323 10.4391 23.791 11.0364 23.51 11.4028C23.8362 12.2158 23.9617 13.4956 22.8726 14.4893C22.0746 15.2171 20.7195 15.5433 18.8425 15.4529C17.5225 15.3927 16.4184 15.1468 16.3732 15.1368H16.3682C16.1173 15.0916 15.8513 15.0364 15.5803 14.9762C15.5602 15.2974 15.6154 16.0954 16.2076 17.8921C16.9102 20.0301 16.8701 21.6662 16.0771 22.7604C15.244 23.9097 13.914 24 13.5225 24C13.1461 24 12.7998 23.8444 12.5539 23.5583C11.9968 22.9109 12.0621 21.7164 12.1323 21.1644C11.4698 19.3877 9.61288 15.0314 8.04199 13.8218C8.01187 13.8018 7.98678 13.7767 7.96169 13.7516C7.49995 13.2647 7.18879 12.7378 6.978 12.276C6.68189 12.4366 6.34563 12.527 5.98427 12.527H2.92279C1.76846 12.527 0.834961 11.5885 0.834961 10.4391V2.28356C0.834961 1.12923 1.77348 0.195734 2.92279 0.195734H5.98427C6.43095 0.195734 6.84751 0.33626 7.18879 0.577164L8.36821 0.436638C8.54889 0.411543 11.7609 0.00502014 15.0583 0.0702648C15.6555 0.025095 16.2176 0 16.7396 0C17.638 0 18.4209 0.0702629 19.0734 0.210791C20.6091 0.537014 21.658 1.18946 22.19 2.14806C22.5966 2.8808 22.5966 3.60853 22.5313 4.07026C23.5301 4.97365 23.7057 5.97239 23.6706 6.67503C23.6505 7.08155 23.5602 7.42785 23.4648 7.68381ZM2.92279 1.55082C2.51627 1.55082 2.19004 1.88206 2.19004 2.28356V10.4442C2.19004 10.8507 2.52128 11.1769 2.92279 11.1769H5.98427C6.3908 11.1769 6.71702 10.8457 6.71702 10.4442V2.28858C6.71702 1.88206 6.38578 1.55583 5.98427 1.55583H2.92279V1.55082ZM22.18 8.27102C21.9692 8.05019 21.9291 7.71393 22.0897 7.45295C22.0897 7.44793 22.2954 7.09661 22.3205 6.61481C22.3557 5.95734 22.0395 5.37516 21.377 4.87829C21.1411 4.69762 21.0458 4.38645 21.1461 4.1054C21.1461 4.10038 21.3619 3.43789 21.0106 2.81054C20.6744 2.20828 19.9266 1.77666 18.7923 1.53576C17.8839 1.34002 16.6493 1.30489 15.1336 1.42535C15.1135 1.42535 15.0884 1.42535 15.0633 1.42535C11.8362 1.35508 8.57398 1.77666 8.53885 1.78168H8.53383L8.02693 1.84191C8.05704 1.98243 8.0721 2.133 8.0721 2.28356V10.4442C8.0721 10.66 8.03697 10.8708 7.97674 11.0665C8.06708 11.4028 8.31802 12.1506 8.91024 12.788C11.1637 14.5747 13.367 20.6023 13.4623 20.8632C13.5025 20.9686 13.5125 21.0841 13.4924 21.1995C13.4071 21.7616 13.4372 22.4492 13.5577 22.655C13.8237 22.6499 14.5414 22.5747 14.973 21.9774C15.4849 21.2698 15.4648 20.005 14.9128 18.3287C14.0696 15.7742 13.9993 14.4291 14.6668 13.8369C14.9981 13.5408 15.4397 13.5257 15.7609 13.6412C16.0671 13.7114 16.3582 13.7716 16.6342 13.8168C16.6543 13.8218 16.6794 13.8268 16.6995 13.8319C18.2402 14.1681 21.0006 14.3739 21.9592 13.5006C22.7722 12.7578 22.1951 11.7742 22.1298 11.6688C21.9441 11.3877 21.9993 11.0213 22.2503 10.7955C22.2553 10.7905 22.7823 10.2936 22.8074 9.6261C22.8274 9.17942 22.6166 8.72271 22.18 8.27102Z" fill="#F8F9FB"/>
</svg>
