<svg width="36" height="30" viewBox="0 0 36 30" fill="none" xmlns="http://www.w3.org/2000/svg">
<path d="M0.376358 10.2337L9.37653 1.23352C9.87872 0.731482 10.6928 0.731633 11.1948 1.23382C11.4358 1.4749 11.5712 1.80171 11.5713 2.1426V5.99981H20.5715C21.2816 5.99981 21.8572 6.57545 21.8572 7.28557C21.8572 7.99568 21.2816 8.57133 20.5715 8.57133H10.2855C9.57542 8.57133 8.99977 7.99568 8.99977 7.28557V5.24629L3.10337 11.1427L8.99977 17.0391V14.9999C8.99977 14.2898 9.57542 13.7141 10.2855 13.7141H24.4287V9.85694C24.4288 9.14682 25.0046 8.57133 25.7147 8.57148C26.0555 8.57155 26.3824 8.70693 26.6234 8.94793L35.6235 17.9481C36.1255 18.4502 36.1255 19.2641 35.6235 19.7661L26.6234 28.7663C26.3823 29.0074 26.0553 29.143 25.7144 29.143C25.5454 29.1436 25.3779 29.1103 25.222 29.0453C24.7416 28.8461 24.4285 28.3773 24.4287 27.8573V24.0001H15.4285C14.7184 24.0001 14.1427 23.4244 14.1427 22.7143C14.1427 22.0042 14.7184 21.4285 15.4285 21.4285H25.7144C26.4245 21.4285 27.0001 22.0042 27.0001 22.7143V24.7535L32.8965 18.8571L27.0001 12.9607V14.9999C27.0001 15.71 26.4245 16.2857 25.7144 16.2857H11.5713V20.1429C11.5711 20.853 10.9953 21.4285 10.2853 21.4283C9.94449 21.4282 9.61761 21.2929 9.37653 21.0519L0.376358 12.0517C-0.12553 11.5496 -0.12553 10.7357 0.376358 10.2337Z" fill="black"/>
</svg>
