<svg width="25" height="24" viewBox="0 0 25 24" fill="none" xmlns="http://www.w3.org/2000/svg">
<path d="M23.4648 16.3162C23.9567 15.6888 24.1926 15.0163 24.1624 14.3237C24.1323 13.5609 23.791 12.9636 23.51 12.5972C23.8362 11.7842 23.9617 10.5044 22.8726 9.51066C22.0746 8.78294 20.7195 8.45671 18.8425 8.54705C17.5225 8.60728 16.4184 8.8532 16.3732 8.86324H16.3682C16.1173 8.90841 15.8513 8.96361 15.5803 9.02384C15.5602 8.70263 15.6154 7.90464 16.2076 6.1079C16.9102 3.96989 16.8701 2.33375 16.0771 1.23965C15.244 0.0903388 13.914 0 13.5225 0C13.1461 0 12.7998 0.155583 12.5539 0.441656C11.9968 1.08908 12.0621 2.28356 12.1323 2.83563C11.4698 4.6123 9.61288 8.96863 8.04199 10.1782C8.01187 10.1982 7.98678 10.2233 7.96169 10.2484C7.49995 10.7353 7.18879 11.2622 6.978 11.724C6.68189 11.5634 6.34563 11.473 5.98427 11.473H2.92279C1.76846 11.473 0.834961 12.4115 0.834961 13.5609V21.7164C0.834961 22.8708 1.77348 23.8043 2.92279 23.8043H5.98427C6.43095 23.8043 6.84751 23.6637 7.18879 23.4228L8.36821 23.5634C8.54889 23.5885 11.7609 23.995 15.0583 23.9297C15.6555 23.9749 16.2176 24 16.7396 24C17.638 24 18.4209 23.9297 19.0734 23.7892C20.6091 23.463 21.658 22.8105 22.19 21.8519C22.5966 21.1192 22.5966 20.3915 22.5313 19.9297C23.5301 19.0264 23.7057 18.0276 23.6706 17.325C23.6505 16.9184 23.5602 16.5721 23.4648 16.3162ZM2.92279 22.4492C2.51627 22.4492 2.19004 22.1179 2.19004 21.7164V13.5558C2.19004 13.1493 2.52128 12.8231 2.92279 12.8231H5.98427C6.3908 12.8231 6.71702 13.1543 6.71702 13.5558V21.7114C6.71702 22.1179 6.38578 22.4442 5.98427 22.4442H2.92279V22.4492ZM22.18 15.729C21.9692 15.9498 21.9291 16.2861 22.0897 16.5471C22.0897 16.5521 22.2954 16.9034 22.3205 17.3852C22.3557 18.0427 22.0395 18.6248 21.377 19.1217C21.1411 19.3024 21.0458 19.6136 21.1461 19.8946C21.1461 19.8996 21.3619 20.5621 21.0106 21.1895C20.6744 21.7917 19.9266 22.2233 18.7923 22.4642C17.8839 22.66 16.6493 22.6951 15.1336 22.5747C15.1135 22.5747 15.0884 22.5747 15.0633 22.5747C11.8362 22.6449 8.57398 22.2233 8.53885 22.2183H8.53383L8.02693 22.1581C8.05704 22.0176 8.0721 21.867 8.0721 21.7164V13.5558C8.0721 13.34 8.03697 13.1292 7.97674 12.9335C8.06708 12.5972 8.31802 11.8494 8.91024 11.212C11.1637 9.42534 13.367 3.39774 13.4623 3.13676C13.5025 3.03137 13.5125 2.91593 13.4924 2.8005C13.4071 2.23839 13.4372 1.55082 13.5577 1.34504C13.8237 1.35006 14.5414 1.42535 14.973 2.02258C15.4849 2.73024 15.4648 3.99498 14.9128 5.67127C14.0696 8.22585 13.9993 9.57089 14.6668 10.1631C14.9981 10.4592 15.4397 10.4743 15.7609 10.3588C16.0671 10.2886 16.3582 10.2284 16.6342 10.1832C16.6543 10.1782 16.6794 10.1732 16.6995 10.1681C18.2402 9.83187 21.0006 9.6261 21.9592 10.4994C22.7722 11.2422 22.1951 12.2258 22.1298 12.3312C21.9441 12.6123 21.9993 12.9787 22.2503 13.2045C22.2553 13.2095 22.7823 13.7064 22.8074 14.3739C22.8274 14.8206 22.6166 15.2773 22.18 15.729Z" fill="white"/>
</svg>
