<svg width="24" height="24" viewBox="0 0 24 24" fill="none" xmlns="http://www.w3.org/2000/svg">
<g clip-path="url(#clip0_80_1019)">
<path d="M15.7143 11.4285C14.2942 11.4285 13.1428 10.2773 13.1428 8.85707C13.1428 7.43701 14.2942 6.28564 15.7143 6.28564C17.1345 6.28564 18.2857 7.43701 18.2857 8.85707C18.2857 10.2773 17.1345 11.4285 15.7143 11.4285ZM15.7143 7.42864C14.9253 7.42864 14.2858 8.06815 14.2858 8.85707C14.2858 9.64621 14.9253 10.2857 15.7143 10.2857C16.5034 10.2857 17.1429 9.64621 17.1429 8.85707C17.1429 8.06815 16.5034 7.42864 15.7143 7.42864Z" fill="white"/>
<path d="M12 24C6.58824 23.9908 1.85073 20.3645 0.428571 15.1429L0.150042 14.1142L5.70724 15.9643V16.3642C5.73507 17.5578 6.43673 18.6324 7.51821 19.138C8.59989 19.6436 9.87451 19.4927 10.808 18.7485C11.7416 18.0044 12.1731 16.7957 11.9215 15.6286L11.85 15.2856L15.2143 12.5357L15.4428 12.5499L15.7142 12.5644C17.2893 12.5801 18.7065 11.6097 19.2612 10.1357C19.8162 8.66141 19.3908 6.99756 18.1963 5.9707C17.0018 4.94406 15.293 4.77309 13.9187 5.54297C12.5447 6.31285 11.7981 7.85952 12.05 9.41434L12.0858 9.63574L9.61419 13.2072L9.27142 13.1643C8.23138 13.0384 7.19552 13.4307 6.49993 14.2142L6.25007 14.5001L0 12.4143V12C0 5.38581 5.38581 0 12 0C18.6142 0 24 5.38581 24 12C24 18.6142 18.6142 24 12 24ZM1.87856 15.8929C3.49156 20.0809 7.51214 22.8474 12 22.8572C17.9858 22.8572 22.8572 17.9858 22.8572 12C22.8572 6.01423 17.9858 1.14279 12 1.14279C6.15004 1.14279 1.36419 5.79283 1.1499 11.5928L5.9142 13.1786C6.76005 12.3742 7.89823 11.9508 9.06424 12.0071L10.8928 9.36433C10.8737 9.19587 10.8643 9.02658 10.8643 8.85707C10.8643 6.17453 13.039 4.00007 15.7213 4.00007C18.4039 4.00007 20.5785 6.17453 20.5785 8.85707C20.5785 11.5396 18.4039 13.7143 15.7213 13.7143H15.6L13.1143 15.7429C13.1378 15.9229 13.1497 16.1043 13.1499 16.2857C13.1342 18.5397 11.3753 20.3961 9.12577 20.5336C6.87598 20.671 4.9043 19.0423 4.61426 16.8072L1.87856 15.8929Z" fill="white"/>
<path d="M8.85704 18.2857C8.48057 18.2857 8.11164 18.1792 7.79272 17.9787L8.40001 17.0071C8.73776 17.214 9.17344 17.1624 9.45365 16.8821C9.73364 16.6022 9.78533 16.1665 9.57858 15.8285L10.55 15.2214C10.9373 15.8377 10.9593 16.6158 10.6073 17.253C10.2553 17.89 9.58507 18.2857 8.85704 18.2857Z" fill="white"/>
</g>
<defs>
<clipPath id="clip0_80_1019">
<rect width="24" height="24" fill="white"/>
</clipPath>
</defs>
</svg>
